Nobile-Extra-Light.ufo
<glyph name="comma" format="1">
  <advance width="387"/>
  <unicode hex="002C"/>
  <outline>
    <contour>
      <point x="136" y="-219" type="line"/>
      <point x="242.293" y="-188.388"/>
      <point x="250.246" y="-104.991"/>
      <point x="250.246" y="-18.613" type="curve" smooth="yes"/>
      <point x="250.246" y="-3.41048"/>
      <point x="250" y="11.8844"/>
      <point x="250" y="204" type="curve"/>
      <point x="145" y="204" type="line"/>
      <point x="145" y="28" type="line"/>
      <point x="207" y="28" type="line"/>
      <point x="207" y="-107"/>
      <point x="200" y="-157"/>
      <point x="122" y="-188" type="curve"/>
    </contour>
  </outline>
</glyph>
<glyph name="three" format="1">
  <advance width="1187"/>
  <unicode hex="0033"/>
  <outline>
    <contour>
      <point x="887.381" y="154.07" type="curve" smooth="yes"/>
      <point x="887.381" y="-43.9667"/>
      <point x="760.181" y="-127"/>
      <point x="579" y="-127" type="curve" smooth="yes"/>
      <point x="478" y="-127"/>
      <point x="368" y="-111"/>
      <point x="267" y="-65" type="curve"/>
      <point x="243" y="-132" type="line"/>
      <point x="351" y="-179"/>
      <point x="470" y="-199"/>
      <point x="579" y="-199" type="curve" smooth="yes"/>
      <point x="794.878" y="-199"/>
      <point x="973.273" y="-98.3265"/>
      <point x="973.273" y="149.06" type="curve" smooth="yes"/>
      <point x="973.273" y="359.19"/>
      <point x="846.349" y="473.833"/>
      <point x="635" y="505" type="curve"/>
      <point x="771" y="505"/>
      <point x="928" y="568"/>
      <point x="928" y="798" type="curve" smooth="yes"/>
      <point x="928" y="1013"/>
      <point x="785" y="1113"/>
      <point x="568" y="1113" type="curve" smooth="yes"/>
      <point x="414" y="1113"/>
      <point x="315" y="1057"/>
      <point x="242" y="1010" type="curve"/>
      <point x="269" y="941" type="line"/>
      <point x="343" y="989"/>
      <point x="444" y="1041"/>
      <point x="568" y="1041" type="curve" smooth="yes"/>
      <point x="705" y="1041"/>
      <point x="841" y="992"/>
      <point x="841" y="798" type="curve" smooth="yes"/>
      <point x="841" y="579"/>
      <point x="681" y="545"/>
      <point x="535" y="545" type="curve"/>
      <point x="535" y="469" type="line"/>
      <point x="769.316" y="433.175"/>
      <point x="887.381" y="363.6"/>
    </contour>
  </outline>
</glyph>
<glyph name="B" format="1">
  <advance width="1282"/>
  <unicode hex="0042"/>
  <outline>
    <contour>
      <point x="168" y="0" type="line"/>
      <point x="539" y="0" type="line" smooth="yes"/>
      <point x="887" y="0"/>
      <point x="1165" y="52"/>
      <point x="1165" y="411" type="curve" smooth="yes"/>
      <point x="1165" y="658"/>
      <point x="1051" y="766"/>
      <point x="811" y="798" type="curve"/>
      <point x="991" y="834"/>
      <point x="1092" y="924"/>
      <point x="1092" y="1139" type="curve" smooth="yes"/>
      <point x="1092" y="1476"/>
      <point x="780" y="1485"/>
      <point x="503" y="1485" type="curve" smooth="yes"/>
      <point x="168" y="1485" type="line"/>
    </contour>
    <contour>
      <point x="260" y="85" type="line"/>
      <point x="260" y="761" type="line"/>
      <point x="571" y="761" type="line" smooth="yes"/>
      <point x="820" y="761"/>
      <point x="1086" y="724"/>
      <point x="1086" y="423" type="curve" smooth="yes"/>
      <point x="1086" y="85"/>
      <point x="801" y="85"/>
      <point x="526" y="85" type="curve" smooth="yes"/>
    </contour>
    <contour>
      <point x="260" y="840" type="line"/>
      <point x="260" y="1415" type="line"/>
      <point x="523.834" y="1415"/>
      <point x="535.659" y="1415.15"/>
      <point x="547.45" y="1415.15" type="curve" smooth="yes"/>
      <point x="785.742" y="1415.15"/>
      <point x="1010" y="1391.17"/>
      <point x="1010" y="1152" type="curve" smooth="yes"/>
      <point x="1010" y="872"/>
      <point x="799" y="840"/>
      <point x="572" y="840" type="curve" smooth="yes"/>
    </contour>
    <contour>
      <point x="636" y="1498" type="move" name="top"/>
    </contour>
  </outline>
</glyph>
<glyph name="F" format="1">
  <advance width="1028"/>
  <unicode hex="0046"/>
  <outline>
    <contour>
      <point x="168" y="0" type="line"/>
      <point x="260" y="0" type="line"/>
      <point x="260" y="766" type="line"/>
      <point x="928" y="766" type="line"/>
      <point x="928" y="839" type="line"/>
      <point x="260" y="839" type="line"/>
      <point x="260" y="1415" type="line"/>
      <point x="957" y="1415" type="line"/>
      <point x="957" y="1485" type="line"/>
      <point x="168" y="1485" type="line"/>
    </contour>
    <contour>
      <point x="580" y="1489" type="move" name="top"/>
    </contour>
  </outline>
</glyph>
<glyph name="I" format="1">
  <advance width="701"/>
  <unicode hex="0049"/>
  <outline>
    <contour>
      <point x="103" y="0" type="line"/>
      <point x="598" y="0" type="line"/>
      <point x="598" y="56" type="line"/>
      <point x="400" y="56" type="line"/>
      <point x="400" y="1429" type="line"/>
      <point x="598" y="1429" type="line"/>
      <point x="598" y="1485" type="line"/>
      <point x="103" y="1485" type="line"/>
      <point x="103" y="1429" type="line"/>
      <point x="309" y="1429" type="line"/>
      <point x="309" y="56" type="line"/>
      <point x="103" y="56" type="line"/>
    </contour>
    <contour>
      <point x="365" y="0" type="move" name="ogonek"/>
    </contour>
    <contour>
      <point x="358" y="1489" type="move" name="top"/>
    </contour>
  </outline>
</glyph>
<glyph name="R" format="1">
  <advance width="1346"/>
  <unicode hex="0052"/>
  <outline>
    <contour>
      <point x="168" y="0" type="line"/>
      <point x="260" y="0" type="line"/>
      <point x="260" y="711" type="line"/>
      <point x="670.161" y="711"/>
      <point x="673.294" y="711.029"/>
      <point x="676.399" y="711.029" type="curve" smooth="yes"/>
      <point x="989.511" y="711.029"/>
      <point x="1015.29" y="611.302"/>
      <point x="1045" y="440" type="curve" smooth="yes"/>
      <point x="1123" y="0" type="line"/>
      <point x="1208" y="0" type="line"/>
      <point x="1133" y="437" type="line" smooth="yes"/>
      <point x="1104" y="605"/>
      <point x="1084" y="698"/>
      <point x="921" y="739" type="curve"/>
      <point x="1077" y="783"/>
      <point x="1182" y="879"/>
      <point x="1182" y="1110" type="curve" smooth="yes"/>
      <point x="1182" y="1463"/>
      <point x="897" y="1485"/>
      <point x="678" y="1485" type="curve" smooth="yes"/>
      <point x="168" y="1485" type="line"/>
    </contour>
    <contour>
      <point x="260" y="789" type="line"/>
      <point x="260" y="1406" type="line"/>
      <point x="680" y="1406" type="line" smooth="yes"/>
      <point x="915" y="1406"/>
      <point x="1086" y="1370"/>
      <point x="1086" y="1111" type="curve" smooth="yes"/>
      <point x="1086" y="825"/>
      <point x="931" y="789"/>
      <point x="667" y="789" type="curve" smooth="yes"/>
    </contour>
    <contour>
      <point x="596" y="0" type="move" name="bot"/>
    </contour>
    <contour>
      <point x="683" y="1489" type="move" name="top"/>
    </contour>
  </outline>
</glyph>
<glyph name="S" format="1">
  <advance width="1140"/>
  <unicode hex="0053"/>
  <outline>
    <contour>
      <point x="959.396" y="393.254" type="curve" smooth="yes"/>
      <point x="959.396" y="122.789"/>
      <point x="783.701" y="57"/>
      <point x="547" y="57" type="curve" smooth="yes"/>
      <point x="368" y="57"/>
      <point x="217" y="121"/>
      <point x="133" y="178" type="curve"/>
      <point x="92" y="110" type="line"/>
      <point x="178" y="54"/>
      <point x="342" y="-21"/>
      <point x="547" y="-21" type="curve" smooth="yes"/>
      <point x="815.264" y="-21"/>
      <point x="1043.27" y="63.4095"/>
      <point x="1043.27" y="391.104" type="curve" smooth="yes"/>
      <point x="1043.27" y="689.269"/>
      <point x="875.436" y="738.448"/>
      <point x="635" y="801" type="curve"/>
      <point x="486" y="839" type="line" smooth="yes"/>
      <point x="266" y="896"/>
      <point x="193" y="967"/>
      <point x="193" y="1141" type="curve" smooth="yes"/>
      <point x="193" y="1374"/>
      <point x="366" y="1427"/>
      <point x="557" y="1427" type="curve" smooth="yes"/>
      <point x="737" y="1427"/>
      <point x="867" y="1370"/>
      <point x="933" y="1309" type="curve"/>
      <point x="975" y="1376" type="line"/>
      <point x="877" y="1456"/>
      <point x="735" y="1505"/>
      <point x="557" y="1505" type="curve" smooth="yes"/>
      <point x="305" y="1505"/>
      <point x="103" y="1421"/>
      <point x="103" y="1141" type="curve" smooth="yes"/>
      <point x="103" y="915"/>
      <point x="225" y="817"/>
      <point x="463" y="758" type="curve" smooth="yes"/>
      <point x="611" y="721" type="line" smooth="yes"/>
      <point x="845.977" y="662.981"/>
      <point x="959.396" y="614.313"/>
    </contour>
    <contour>
      <point x="519" y="-10" type="move" name="bot"/>
    </contour>
    <contour>
      <point x="564" y="1483" type="move" name="top"/>
    </contour>
  </outline>
</glyph>
<glyph name="Y" format="1">
  <advance width="1181"/>
  <unicode hex="0059"/>
  <outline>
    <contour>
      <point x="542" y="0" type="line"/>
      <point x="634" y="0" type="line"/>
      <point x="634" y="662" type="line"/>
      <point x="1125" y="1485" type="line"/>
      <point x="1030" y="1485" type="line"/>
      <point x="592" y="753" type="line"/>
      <point x="155" y="1485" type="line"/>
      <point x="57" y="1485" type="line"/>
      <point x="542" y="662" type="line"/>
    </contour>
    <contour>
      <point x="599" y="1489" type="move" name="top"/>
    </contour>
  </outline>
</glyph>
<glyph name="Z" format="1">
  <advance width="1108"/>
  <unicode hex="005A"/>
  <outline>
    <contour>
      <point x="133" y="0" type="line"/>
      <point x="1028" y="0" type="line"/>
      <point x="1028" y="75" type="line"/>
      <point x="235" y="75" type="line"/>
      <point x="1027" y="1414" type="line"/>
      <point x="1027" y="1485" type="line"/>
      <point x="133" y="1485" type="line"/>
      <point x="133" y="1410" type="line"/>
      <point x="928" y="1410" type="line"/>
      <point x="133" y="74" type="line"/>
    </contour>
    <contour>
      <point x="599" y="1489" type="move" name="top"/>
    </contour>
  </outline>
</glyph>
<glyph name="f" format="1">
  <advance width="694"/>
  <unicode hex="0066"/>
  <outline>
    <contour>
      <point x="500.639" y="1510.2" type="curve" smooth="yes"/>
      <point x="312.08" y="1510.2"/>
      <point x="243" y="1412.76"/>
      <point x="243" y="1144" type="curve" smooth="yes"/>
      <point x="243" y="1097" type="line"/>
      <point x="58" y="1097" type="line"/>
      <point x="58" y="1035" type="line"/>
      <point x="243" y="1035" type="line"/>
      <point x="243" y="0" type="line"/>
      <point x="333" y="0" type="line"/>
      <point x="333" y="1035" type="line"/>
      <point x="643" y="1035" type="line"/>
      <point x="643" y="1097" type="line"/>
      <point x="333" y="1097" type="line"/>
      <point x="333" y="1144" type="line" smooth="yes"/>
      <point x="333" y="1343.67"/>
      <point x="356.083" y="1440.13"/>
      <point x="503.74" y="1440.13" type="curve" smooth="yes"/>
      <point x="562.346" y="1440.13"/>
      <point x="623.044" y="1423.69"/>
      <point x="664" y="1408" type="curve"/>
      <point x="683" y="1472" type="line"/>
      <point x="645.939" y="1488.77"/>
      <point x="574.616" y="1510.2"/>
    </contour>
    <contour>
      <point x="283" y="1515" type="move" name="top"/>
    </contour>
  </outline>
</glyph>
<glyph name="s" format="1">
  <advance width="923"/>
  <unicode hex="0073"/>
  <outline>
    <contour>
      <point x="741.158" y="297.104" type="curve" smooth="yes"/>
      <point x="741.158" y="105.629"/>
      <point x="604.309" y="54"/>
      <point x="468" y="54" type="curve" smooth="yes"/>
      <point x="355" y="54"/>
      <point x="244" y="95"/>
      <point x="162" y="163" type="curve"/>
      <point x="125" y="99" type="line"/>
      <point x="186" y="36"/>
      <point x="330" y="-21"/>
      <point x="463" y="-21" type="curve" smooth="yes"/>
      <point x="668.656" y="-21"/>
      <point x="830.341" y="70.9241"/>
      <point x="830.341" y="301.962" type="curve" smooth="yes"/>
      <point x="830.341" y="500.966"/>
      <point x="700.312" y="551.229"/>
      <point x="575" y="593" type="curve" smooth="yes"/>
      <point x="431" y="640" type="line" smooth="yes"/>
      <point x="295" y="685"/>
      <point x="203" y="705"/>
      <point x="203" y="831" type="curve" smooth="yes"/>
      <point x="203" y="991"/>
      <point x="334" y="1042"/>
      <point x="447" y="1042" type="curve" smooth="yes"/>
      <point x="566" y="1042"/>
      <point x="667" y="1010"/>
      <point x="744" y="950" type="curve"/>
      <point x="781" y="1012" type="line"/>
      <point x="704" y="1077"/>
      <point x="572" y="1117"/>
      <point x="441" y="1117" type="curve" smooth="yes"/>
      <point x="295" y="1117"/>
      <point x="116" y="1047"/>
      <point x="116" y="830" type="curve" smooth="yes"/>
      <point x="116" y="648"/>
      <point x="270" y="603"/>
      <point x="407" y="561" type="curve" smooth="yes"/>
      <point x="539" y="521" type="line" smooth="yes"/>
      <point x="669.465" y="481.082"/>
      <point x="741.158" y="443.059"/>
    </contour>
    <contour>
      <point x="486" y="-4" type="move" name="bot"/>
    </contour>
    <contour>
      <point x="489" y="1100" type="move" name="top"/>
    </contour>
  </outline>
</glyph>
<glyph name="z" format="1">
  <advance width="866"/>
  <unicode hex="007A"/>
  <outline>
    <contour>
      <point x="94" y="0" type="line"/>
      <point x="798" y="0" type="line"/>
      <point x="798" y="76" type="line"/>
      <point x="190" y="76" type="line"/>
      <point x="797" y="1021" type="line"/>
      <point x="798" y="1097" type="line"/>
      <point x="125" y="1097" type="line"/>
      <point x="125" y="1029" type="line"/>
      <point x="709" y="1029" type="line"/>
      <point x="94" y="81" type="line"/>
    </contour>
    <contour>
      <point x="450" y="1097" type="move" name="top"/>
    </contour>
  </outline>
</glyph>
<glyph name="cent" format="1">
  <advance width="1015"/>
  <unicode hex="00A2"/>
  <outline>
    <contour>
      <point x="557" y="-192" type="line"/>
      <point x="620" y="-192" type="line"/>
      <point x="620" y="1346" type="line"/>
      <point x="557" y="1346" type="line"/>
    </contour>
    <component base="c" yOffset="105" yScale="0.91"/>
  </outline>
</glyph>
<glyph name="copyright" format="1">
  <advance width="1802"/>
  <unicode hex="00A9"/>
  <outline>
    <contour>
      <point x="912.725" y="1243.14" type="curve" smooth="yes"/>
      <point x="617.009" y="1243.14"/>
      <point x="431" y="1050.36"/>
      <point x="431" y="755" type="curve" smooth="yes"/>
      <point x="431" y="457"/>
      <point x="611" y="269"/>
      <point x="909" y="269" type="curve" smooth="yes"/>
      <point x="1042" y="269"/>
      <point x="1165" y="313"/>
      <point x="1249" y="384" type="curve"/>
      <point x="1215" y="437" type="line"/>
      <point x="1136" y="373"/>
      <point x="1029" y="334"/>
      <point x="909" y="334" type="curve" smooth="yes"/>
      <point x="657" y="334"/>
      <point x="516" y="487"/>
      <point x="516" y="755" type="curve" smooth="yes"/>
      <point x="516" y="1012.43"/>
      <point x="655.805" y="1178.17"/>
      <point x="912.909" y="1178.17" type="curve" smooth="yes"/>
      <point x="1022.77" y="1178.17"/>
      <point x="1133.98" y="1141.55"/>
      <point x="1210" y="1079" type="curve"/>
      <point x="1251" y="1127" type="line"/>
      <point x="1169.64" y="1198.67"/>
      <point x="1043.25" y="1243.14"/>
    </contour>
    <contour>
      <point x="901" y="55" type="curve" smooth="yes"/>
      <point x="467" y="55"/>
      <point x="195" y="320"/>
      <point x="195" y="744" type="curve" smooth="yes"/>
      <point x="195" y="1168"/>
      <point x="467" y="1433"/>
      <point x="901" y="1433" type="curve" smooth="yes"/>
      <point x="1335" y="1433"/>
      <point x="1607" y="1168"/>
      <point x="1607" y="744" type="curve" smooth="yes"/>
      <point x="1607" y="320"/>
      <point x="1335" y="55"/>
    </contour>
    <contour>
      <point x="901" y="-17" type="curve" smooth="yes"/>
      <point x="1387" y="-17"/>
      <point x="1692" y="276"/>
      <point x="1692" y="744" type="curve" smooth="yes"/>
      <point x="1692" y="1212"/>
      <point x="1387" y="1505"/>
      <point x="901" y="1505" type="curve" smooth="yes"/>
      <point x="415" y="1505"/>
      <point x="110" y="1212"/>
      <point x="110" y="744" type="curve" smooth="yes"/>
      <point x="110" y="276"/>
      <point x="415" y="-17"/>
    </contour>
  </outline>
</glyph>
<glyph name="threequarters" format="1">
  <advance width="2028"/>
  <unicode hex="00BE"/>
  <outline>
    <contour>
      <point x="416" y="585" type="curve" smooth="yes"/>
      <point x="576.837" y="585"/>
      <point x="710.227" y="659.511"/>
      <point x="710.227" y="842.089" type="curve" smooth="yes"/>
      <point x="710.227" y="980.215"/>
      <point x="632.855" y="1063"/>
      <point x="500" y="1095" type="curve"/>
      <point x="589" y="1107"/>
      <point x="677" y="1162"/>
      <point x="677" y="1308" type="curve" smooth="yes"/>
      <point x="677" y="1467"/>
      <point x="570" y="1541"/>
      <point x="408" y="1541" type="curve" smooth="yes"/>
      <point x="289" y="1541"/>
      <point x="215" y="1496"/>
      <point x="164" y="1463" type="curve"/>
      <point x="187" y="1400" type="line"/>
      <point x="243" y="1437"/>
      <point x="315" y="1477"/>
      <point x="408" y="1477" type="curve" smooth="yes"/>
      <point x="504" y="1477"/>
      <point x="595" y="1445"/>
      <point x="595" y="1308" type="curve" smooth="yes"/>
      <point x="595" y="1153.69"/>
      <point x="487.221" y="1131.96"/>
      <point x="382.512" y="1131.96" type="curve" smooth="yes"/>
      <point x="380.005" y="1131.96"/>
      <point x="375" y="1134.5"/>
      <point x="375" y="1067" type="curve"/>
      <point x="543.34" y="1043.91"/>
      <point x="628.4" y="994.918"/>
      <point x="628.4" y="847.023" type="curve" smooth="yes"/>
      <point x="628.4" y="706.495"/>
      <point x="542.603" y="648"/>
      <point x="416" y="648" type="curve" smooth="yes"/>
      <point x="341" y="648"/>
      <point x="262" y="661"/>
      <point x="186" y="697" type="curve"/>
      <point x="164" y="637" type="line"/>
      <point x="243" y="601"/>
      <point x="334" y="585"/>
    </contour>
    <contour>
      <point x="1691" y="-7" type="line"/>
      <point x="1691" y="265" type="line"/>
      <point x="1839" y="265" type="line"/>
      <point x="1839" y="320" type="line"/>
      <point x="1691" y="320" type="line"/>
      <point x="1691" y="1055" type="line"/>
      <point x="1611" y="1072" type="line"/>
      <point x="1091" y="341" type="line"/>
      <point x="1106" y="265" type="line"/>
      <point x="1605" y="265" type="line"/>
      <point x="1605" y="0" type="line"/>
    </contour>
    <contour>
      <point x="553" y="-16" type="line"/>
      <point x="1524" y="1523" type="line"/>
      <point x="1459" y="1565" type="line"/>
      <point x="489" y="26" type="line"/>
    </contour>
    <contour>
      <point x="1167" y="320" type="line"/>
      <point x="1605" y="953" type="line"/>
      <point x="1605" y="320" type="line"/>
    </contour>
  </outline>
</glyph>
<glyph name="uni0237" format="1">
  <advance width="503"/>
  <unicode hex="0237"/>
  <outline>
    <contour>
      <point x="150" y="-361" type="line"/>
      <point x="371" y="-306"/>
      <point x="400" y="-54"/>
      <point x="400" y="120" type="curve" smooth="yes"/>
      <point x="400" y="1097" type="line"/>
      <point x="303" y="1097" type="line"/>
      <point x="303" y="111.082"/>
      <point x="303.486" y="82.0021"/>
      <point x="303.486" y="53.7507" type="curve" smooth="yes"/>
      <point x="303.486" y="-89.8602"/>
      <point x="290.918" y="-212.055"/>
      <point x="138" y="-314" type="curve"/>
    </contour>
    <contour>
      <point x="354" y="1097" type="move" name="top"/>
    </contour>
  </outline>
</glyph>
<glyph name="tilde" format="1">
  <advance width="782"/>
  <unicode hex="02DC"/>
  <outline>
    <contour>
      <point x="93" y="1322" type="curve"/>
      <point x="139" y="1322" type="line"/>
      <point x="139" y="1389.41"/>
      <point x="166.046" y="1412.75"/>
      <point x="211.914" y="1412.75" type="curve" smooth="yes"/>
      <point x="271.514" y="1412.75"/>
      <point x="362.891" y="1373.34"/>
      <point x="468" y="1340" type="curve" smooth="yes"/>
      <point x="588" y="1302"/>
      <point x="650" y="1341"/>
      <point x="650" y="1489" type="curve"/>
      <point x="603" y="1489" type="line"/>
      <point x="603" y="1421.59"/>
      <point x="575.954" y="1398.25"/>
      <point x="530.086" y="1398.25" type="curve" smooth="yes"/>
      <point x="470.486" y="1398.25"/>
      <point x="379.109" y="1437.66"/>
      <point x="274" y="1471" type="curve" smooth="yes"/>
      <point x="154.002" y="1509"/>
      <point x="93" y="1470"/>
    </contour>
    <contour>
      <point x="388" y="1096" type="move" name="_top"/>
    </contour>
  </outline>
</glyph>
<glyph name="quoteright" format="1">
  <advance width="478"/>
  <unicode hex="2019"/>
  <outline>
    <contour>
      <point x="181" y="1092" type="line"/>
      <point x="287.293" y="1122.61"/>
      <point x="295.246" y="1206.01"/>
      <point x="295.246" y="1292.39" type="curve" smooth="yes"/>
      <point x="295.246" y="1307.59"/>
      <point x="295" y="1322.88"/>
      <point x="295" y="1515" type="curve"/>
      <point x="191" y="1515" type="line"/>
      <point x="191" y="1339" type="line"/>
      <point x="252" y="1339" type="line"/>
      <point x="252" y="1204"/>
      <point x="245" y="1154"/>
      <point x="167" y="1123" type="curve"/>
    </contour>
  </outline>
</glyph>
<glyph name="quotedblleft" format="1">
  <advance width="691"/>
  <unicode hex="201C"/>
  <outline>
    <contour>
      <point x="167" y="1123" type="curve"/>
      <point x="272" y="1123" type="line"/>
      <point x="272" y="1299" type="line"/>
      <point x="210" y="1299" type="line"/>
      <point x="210" y="1434"/>
      <point x="217" y="1484"/>
      <point x="295" y="1515" type="curve"/>
      <point x="281" y="1546" type="line"/>
      <point x="174.707" y="1515.39"/>
      <point x="166.754" y="1431.99"/>
      <point x="166.754" y="1345.61" type="curve" smooth="yes"/>
      <point x="166.754" y="1330.41"/>
      <point x="167" y="1315.12"/>
    </contour>
    <contour>
      <point x="411" y="1123" type="curve"/>
      <point x="516" y="1123" type="line"/>
      <point x="516" y="1299" type="line"/>
      <point x="454" y="1299" type="line"/>
      <point x="454" y="1434"/>
      <point x="461" y="1484"/>
      <point x="539" y="1515" type="curve"/>
      <point x="525" y="1546" type="line"/>
      <point x="418.707" y="1515.39"/>
      <point x="410.754" y="1431.99"/>
      <point x="410.754" y="1345.61" type="curve" smooth="yes"/>
      <point x="410.754" y="1330.41"/>
      <point x="411" y="1315.12"/>
    </contour>
  </outline>
</glyph>
<glyph name="quotedblright" format="1">
  <advance width="776"/>
  <unicode hex="201D"/>
  <outline>
    <contour>
      <point x="200" y="1092" type="line"/>
      <point x="306.293" y="1122.61"/>
      <point x="314.246" y="1206.01"/>
      <point x="314.246" y="1292.39" type="curve" smooth="yes"/>
      <point x="314.246" y="1307.59"/>
      <point x="314" y="1322.88"/>
      <point x="314" y="1515" type="curve"/>
      <point x="209" y="1515" type="line"/>
      <point x="209" y="1339" type="line"/>
      <point x="271" y="1339" type="line"/>
      <point x="271" y="1204"/>
      <point x="264" y="1154"/>
      <point x="186" y="1123" type="curve"/>
    </contour>
    <contour>
      <point x="444" y="1092" type="line"/>
      <point x="550.293" y="1122.61"/>
      <point x="558.246" y="1206.01"/>
      <point x="558.246" y="1292.39" type="curve" smooth="yes"/>
      <point x="558.246" y="1307.59"/>
      <point x="558" y="1322.88"/>
      <point x="558" y="1515" type="curve"/>
      <point x="453" y="1515" type="line"/>
      <point x="453" y="1339" type="line"/>
      <point x="515" y="1339" type="line"/>
      <point x="515" y="1204"/>
      <point x="508" y="1154"/>
      <point x="430" y="1123" type="curve"/>
    </contour>
  </outline>
</glyph>
<glyph name="quotedblbase" format="1">
  <advance width="708"/>
  <unicode hex="201E"/>
  <outline>
    <contour>
      <point x="158" y="-219" type="line"/>
      <point x="264.293" y="-188.388"/>
      <point x="272.246" y="-104.991"/>
      <point x="272.246" y="-18.613" type="curve" smooth="yes"/>
      <point x="272.246" y="-3.41048"/>
      <point x="272" y="11.8844"/>
      <point x="272" y="204" type="curve"/>
      <point x="167" y="204" type="line"/>
      <point x="167" y="28" type="line"/>
      <point x="229" y="28" type="line"/>
      <point x="229" y="-107"/>
      <point x="222" y="-157"/>
      <point x="144" y="-188" type="curve"/>
    </contour>
    <contour>
      <point x="402" y="-219" type="line"/>
      <point x="508.293" y="-188.388"/>
      <point x="516.246" y="-104.991"/>
      <point x="516.246" y="-18.613" type="curve" smooth="yes"/>
      <point x="516.246" y="-3.41048"/>
      <point x="516" y="11.8844"/>
      <point x="516" y="204" type="curve"/>
      <point x="411" y="204" type="line"/>
      <point x="411" y="28" type="line"/>
      <point x="473" y="28" type="line"/>
      <point x="473" y="-107"/>
      <point x="466" y="-157"/>
      <point x="388" y="-188" type="curve"/>
    </contour>
  </outline>
</glyph>
<glyph name="uniFB01" format="1">
  <advance width="1083"/>
  <unicode hex="FB01"/>
  <outline>
    <contour>
      <point x="221" y="0" type="line"/>
      <point x="312" y="0" type="line"/>
      <point x="312" y="1034" type="line"/>
      <point x="831" y="1034" type="line"/>
      <point x="831" y="0" type="line"/>
      <point x="921" y="0" type="line"/>
      <point x="921" y="1096" type="line"/>
      <point x="312" y="1096" type="line"/>
      <point x="312" y="1144" type="line" smooth="yes"/>
      <point x="312" y="1343.67"/>
      <point x="335.083" y="1440.13"/>
      <point x="482.74" y="1440.13" type="curve" smooth="yes"/>
      <point x="541.346" y="1440.13"/>
      <point x="602.044" y="1423.69"/>
      <point x="643" y="1408" type="curve"/>
      <point x="663" y="1472" type="line"/>
      <point x="625.939" y="1488.77"/>
      <point x="554.616" y="1510.2"/>
      <point x="480.639" y="1510.2" type="curve" smooth="yes"/>
      <point x="292.177" y="1510.2"/>
      <point x="221" y="1412.69"/>
      <point x="221" y="1144" type="curve" smooth="yes"/>
      <point x="221" y="1096" type="line"/>
      <point x="36" y="1096" type="line"/>
      <point x="36" y="1034" type="line"/>
      <point x="221" y="1034" type="line"/>
    </contour>
    <contour>
      <point x="878" y="1264" type="curve" smooth="yes"/>
      <point x="922" y="1264"/>
      <point x="943" y="1297"/>
      <point x="943" y="1331" type="curve" smooth="yes"/>
      <point x="943" y="1364"/>
      <point x="922" y="1396"/>
      <point x="878" y="1396" type="curve" smooth="yes"/>
      <point x="834" y="1396"/>
      <point x="813" y="1364"/>
      <point x="813" y="1331" type="curve" smooth="yes"/>
      <point x="813" y="1297"/>
      <point x="834" y="1264"/>
    </contour>
  </outline>
</glyph>
<glyph name="uniFB04" format="1">
  <advance width="1747"/>
  <unicode hex="FB04"/>
  <outline>
    <contour>
      <point x="243" y="0" type="line"/>
      <point x="333" y="0" type="line"/>
      <point x="333" y="1035" type="line"/>
      <point x="855" y="1034" type="line"/>
      <point x="855" y="0" type="line"/>
      <point x="946" y="0" type="line"/>
      <point x="946" y="1034" type="line"/>
      <point x="1305" y="1034" type="line"/>
      <point x="1305" y="1096" type="line"/>
      <point x="946" y="1096" type="line"/>
      <point x="946" y="1144" type="line" smooth="yes"/>
      <point x="946" y="1353"/>
      <point x="1025" y="1449"/>
      <point x="1213" y="1449" type="curve" smooth="yes"/>
      <point x="1285" y="1449"/>
      <point x="1372" y="1435"/>
      <point x="1478" y="1408" type="curve"/>
      <point x="1478" y="0" type="line"/>
      <point x="1568" y="0" type="line"/>
      <point x="1568" y="1462" type="line"/>
      <point x="1427" y="1501"/>
      <point x="1306" y="1522"/>
      <point x="1206" y="1522" type="curve" smooth="yes"/>
      <point x="971" y="1522"/>
      <point x="855" y="1406"/>
      <point x="855" y="1144" type="curve" smooth="yes"/>
      <point x="855" y="1097" type="line"/>
      <point x="333" y="1097" type="line"/>
      <point x="333" y="1144" type="line" smooth="yes"/>
      <point x="333" y="1344"/>
      <point x="356" y="1440"/>
      <point x="504" y="1440" type="curve" smooth="yes"/>
      <point x="562" y="1440"/>
      <point x="623" y="1424"/>
      <point x="664" y="1408" type="curve"/>
      <point x="683" y="1472" type="line"/>
      <point x="646" y="1489"/>
      <point x="575" y="1510"/>
      <point x="501" y="1510" type="curve" smooth="yes"/>
      <point x="312" y="1510"/>
      <point x="243" y="1413"/>
      <point x="243" y="1144" type="curve" smooth="yes"/>
      <point x="243" y="1097" type="line"/>
      <point x="58" y="1097" type="line"/>
      <point x="58" y="1035" type="line"/>
      <point x="243" y="1035" type="line"/>
    </contour>
  </outline>
</glyph>
<glyph name="caron.alt" format="1">
  <advance width="561"/>
  <outline>
    <component base="comma" xOffset="37" yOffset="1345"/>
    <contour>
      <point x="28" y="1096" type="move" name="_caron.alt"/>
    </contour>
  </outline>
</glyph>
